<?xml version="1.0" encoding="UTF-8"?>
<svg xmlns="http://www.w3.org/2000/svg" xmlns:xlink="http://www.w3.org/1999/xlink" width="48px" height="48px" viewBox="0 0 48 48" version="1.1">
<g id="surface1">
<path style=" stroke:none;fill-rule:nonzero;fill:rgb(0%,0%,0%);fill-opacity:1;" d="M 24 0 C 30.628906 0 36.628906 2.6875 40.96875 7.03125 C 45.3125 11.375 48 17.375 48 24 C 48 30.628906 45.3125 36.628906 40.96875 40.96875 C 36.625 45.3125 30.625 48 24 48 C 17.375 48 11.371094 45.3125 7.03125 40.96875 C 2.6875 36.628906 0 30.628906 0 24 C 0 17.371094 2.6875 11.371094 7.03125 7.03125 C 11.371094 2.6875 17.371094 0 24 0 Z M 38.035156 40.734375 L 38.675781 36.550781 C 36.265625 35.535156 33.914062 34.140625 31.484375 33.359375 C 30.316406 39.34375 19.332031 40.539062 15.921875 33.660156 C 13.144531 34.628906 11.496094 35.574219 9.144531 36.65625 L 9.671875 40.488281 C 13.507812 43.824219 18.515625 45.84375 23.996094 45.84375 C 29.34375 45.839844 34.242188 43.917969 38.035156 40.734375 Z M 6.816406 37.480469 C 7.351562 36.753906 8.054688 36.183594 9.175781 35.480469 C 11.054688 34.300781 13.472656 33.3125 15.949219 32.347656 C 16.28125 32.042969 16.730469 31.664062 17.207031 31.257812 C 18.191406 30.425781 19.300781 29.488281 19.550781 29.121094 C 19.207031 28.777344 18.890625 28.414062 18.582031 28.054688 L 17.230469 26.484375 L 16.378906 26.507812 L 14.515625 26.558594 C 12.914062 24.71875 13.015625 20.761719 13.167969 18.476562 C 13.914062 13.886719 15.691406 10.582031 18.578125 8.667969 C 20.535156 7.371094 21.707031 7.300781 23.992188 7.300781 C 25.988281 7.300781 27.214844 7.257812 28.917969 8.378906 C 34.46875 12.035156 36.191406 20.660156 33.476562 26.472656 L 31.667969 26.472656 C 31.613281 26.539062 31.558594 26.601562 31.507812 26.660156 L 31.335938 26.863281 L 30.492188 27.875 C 30 28.464844 29.503906 29.054688 28.917969 29.578125 C 29.304688 30.046875 30.230469 30.859375 31.054688 31.582031 C 31.355469 31.84375 31.640625 32.09375 31.890625 32.320312 C 34.398438 33.292969 36.84375 34.292969 38.742188 35.484375 C 39.886719 36.203125 40.597656 36.78125 41.136719 37.53125 C 44.078125 33.8125 45.832031 29.109375 45.832031 24 C 45.832031 17.96875 43.386719 12.507812 39.433594 8.558594 C 35.492188 4.605469 30.03125 2.160156 24 2.160156 C 17.96875 2.160156 12.507812 4.605469 8.558594 8.558594 C 4.605469 12.507812 2.160156 17.96875 2.160156 24 C 2.160156 29.085938 3.898438 33.769531 6.816406 37.480469 Z M 28.191406 30.148438 C 27.230469 30.804688 26.042969 31.238281 24.421875 31.234375 C 22.902344 31.230469 21.757812 30.808594 20.820312 30.183594 C 20.613281 30.042969 20.414062 29.894531 20.226562 29.738281 C 19.546875 30.578125 18.421875 31.605469 17.582031 32.316406 C 17.519531 37.476562 28.679688 38.871094 30.238281 32.089844 C 29.445312 31.398438 28.609375 30.652344 28.191406 30.148438 Z M 17.695312 25.703125 C 18.007812 25.792969 19.191406 27.304688 19.484375 27.640625 C 20.097656 28.351562 20.742188 29.078125 21.535156 29.609375 C 22.292969 30.113281 23.207031 30.457031 24.421875 30.457031 C 25.734375 30.460938 26.699219 30.105469 27.476562 29.570312 C 28.296875 29.011719 28.945312 28.238281 29.585938 27.464844 L 30.429688 26.453125 L 30.605469 26.242188 C 30.761719 26.058594 30.949219 25.765625 31.175781 25.691406 C 31.296875 25.277344 31.390625 24.839844 31.460938 24.386719 C 31.699219 22.785156 31.707031 21.542969 30.988281 20.066406 C 30.367188 18.792969 29.488281 18.132812 28.53125 17.660156 C 29.5625 18.8125 30.417969 19.929688 30.191406 20.847656 C 28.929688 19.460938 27.628906 18.253906 26.285156 17.253906 C 23.472656 15.800781 21.816406 13.832031 21.078125 11.445312 C 16.929688 15.597656 16.1875 20.441406 17.695312 25.703125 Z M 17.695312 25.703125 "/>
</g>
</svg>
