<?xml version="1.0" encoding="UTF-8"?>
<svg xmlns="http://www.w3.org/2000/svg" xmlns:xlink="http://www.w3.org/1999/xlink" width="30px" height="30px" viewBox="0 0 30 30" version="1.1">
<g id="surface1">
<path style=" stroke:none;fill-rule:nonzero;fill:rgb(0%,0%,0%);fill-opacity:1;" d="M 14.984375 0.164062 C 8.550781 0.164062 3.335938 5.378906 3.335938 11.8125 C 3.335938 14.6875 4.378906 17.3125 6.101562 19.339844 L 14.984375 29.800781 L 23.863281 19.339844 C 25.585938 17.3125 26.632812 14.683594 26.632812 11.8125 C 26.632812 5.378906 21.417969 0.164062 14.984375 0.164062 Z M 14.984375 16.203125 C 12.335938 16.203125 10.191406 14.058594 10.191406 11.414062 C 10.191406 8.765625 12.335938 6.621094 14.984375 6.621094 C 17.628906 6.621094 19.773438 8.765625 19.773438 11.414062 C 19.773438 14.058594 17.628906 16.203125 14.984375 16.203125 Z M 14.984375 16.203125 "/>
</g>
</svg>
