<?xml version="1.0" encoding="UTF-8"?>
<svg xmlns="http://www.w3.org/2000/svg" xmlns:xlink="http://www.w3.org/1999/xlink" width="48px" height="48px" viewBox="0 0 48 48" version="1.1">
<g id="surface1">
<path style=" stroke:none;fill-rule:nonzero;fill:rgb(0%,0%,0%);fill-opacity:1;" d="M 47.585938 35.972656 L 32.882812 15.117188 C 32.78125 14.972656 32.640625 14.894531 32.441406 14.894531 C 32.265625 14.898438 32.105469 14.988281 32.007812 15.132812 L 26.875 23.046875 L 18.320312 11.359375 C 18.222656 11.21875 18.070312 11.160156 17.890625 11.140625 C 17.71875 11.144531 17.558594 11.230469 17.464844 11.367188 L 0.359375 35.976562 C 0.246094 36.136719 0.234375 36.347656 0.324219 36.519531 C 0.414062 36.695312 0.59375 36.804688 0.789062 36.804688 L 47.15625 36.804688 C 47.351562 36.804688 47.53125 36.695312 47.625 36.519531 C 47.714844 36.34375 47.699219 36.132812 47.585938 35.972656 Z M 17.90625 12.578125 L 26.472656 24.285156 C 26.574219 24.425781 26.71875 24.507812 26.914062 24.5 C 27.085938 24.496094 27.246094 24.40625 27.339844 24.261719 L 32.46875 16.359375 L 38.683594 25.175781 L 35.1875 26.648438 C 34.046875 27.128906 32.738281 27.027344 31.6875 26.378906 C 30.171875 25.453125 28.273438 25.414062 26.722656 26.285156 L 26.191406 26.585938 C 24.867188 27.328125 23.226562 27.222656 22.011719 26.316406 L 21.632812 26.03125 C 20.132812 24.914062 18.164062 24.746094 16.492188 25.589844 L 15.699219 25.992188 C 14.433594 26.632812 12.925781 26.527344 11.761719 25.714844 L 9.75 24.308594 Z M 17.90625 12.578125 "/>
</g>
</svg>
