<?xml version="1.0" encoding="UTF-8"?>
<svg xmlns="http://www.w3.org/2000/svg" xmlns:xlink="http://www.w3.org/1999/xlink" width="48px" height="48px" viewBox="0 0 48 48" version="1.1">
<g id="surface1">
<path style=" stroke:none;fill-rule:nonzero;fill:rgb(0%,0%,0%);fill-opacity:1;" d="M 39.277344 9.507812 C 38.957031 7.804688 37.675781 6.421875 36.011719 5.992188 C 28.042969 3.929688 19.960938 3.929688 11.988281 5.992188 C 10.324219 6.421875 9.042969 7.804688 8.722656 9.507812 C 8.546875 10.457031 8.40625 11.40625 8.261719 12.355469 C 9.289062 12.300781 10.324219 12.445312 11.300781 12.851562 C 12.066406 13.167969 12.429688 14.046875 12.113281 14.8125 C 11.875 15.386719 11.316406 15.738281 10.726562 15.738281 C 10.535156 15.738281 10.339844 15.699219 10.152344 15.621094 C 9.421875 15.320312 8.636719 15.246094 7.875 15.398438 C 7.746094 16.597656 7.640625 17.796875 7.566406 19 C 8.714844 18.910156 9.875 19.054688 10.972656 19.511719 C 11.734375 19.828125 12.097656 20.703125 11.78125 21.472656 C 11.542969 22.046875 10.984375 22.398438 10.398438 22.398438 C 10.203125 22.398438 10.007812 22.359375 9.820312 22.28125 C 9.054688 21.964844 8.234375 21.882812 7.433594 22.015625 C 7.402344 23.234375 7.402344 24.453125 7.425781 25.671875 C 8.558594 25.554688 9.710938 25.6875 10.796875 26.132812 C 11.558594 26.449219 11.921875 27.328125 11.605469 28.09375 C 11.367188 28.671875 10.808594 29.019531 10.222656 29.019531 C 10.027344 29.019531 9.835938 28.984375 9.648438 28.90625 C 8.96875 28.625 8.246094 28.550781 7.542969 28.660156 C 7.613281 29.859375 7.710938 31.054688 7.835938 32.25 C 8.882812 32.214844 9.929688 32.378906 10.921875 32.792969 C 11.6875 33.109375 12.050781 33.988281 11.734375 34.753906 C 11.496094 35.332031 10.9375 35.679688 10.347656 35.679688 C 10.15625 35.679688 9.960938 35.644531 9.773438 35.566406 C 9.265625 35.351562 8.730469 35.25 8.199219 35.238281 C 8.351562 36.324219 8.523438 37.410156 8.722656 38.488281 C 8.722656 38.488281 8.722656 38.488281 8.722656 38.492188 C 9.042969 40.195312 10.324219 41.574219 11.988281 42.007812 C 15.972656 43.035156 19.984375 43.550781 24 43.550781 C 28.011719 43.550781 32.027344 43.035156 36.011719 42.007812 C 37.675781 41.574219 38.957031 40.195312 39.277344 38.488281 C 41.054688 28.875 41.054688 19.125 39.277344 9.507812 Z M 24.765625 16.050781 C 26.933594 16.050781 28.691406 17.808594 28.691406 19.976562 C 28.691406 22.144531 26.933594 23.898438 24.765625 23.898438 C 22.597656 23.898438 20.84375 22.144531 20.84375 19.976562 C 20.84375 17.808594 22.597656 16.050781 24.765625 16.050781 Z M 33.410156 29.683594 C 33.410156 30.777344 32.714844 31.683594 31.753906 32.105469 C 27.535156 33.953125 20.691406 33.480469 17.785156 32.117188 C 16.828125 31.667969 16.121094 30.78125 16.121094 29.679688 C 16.121094 27.375 21.351562 25.507812 24.765625 25.507812 C 28.179688 25.507812 33.410156 27.378906 33.410156 29.683594 Z M 33.410156 29.683594 "/>
</g>
</svg>
