<?xml version="1.0" encoding="UTF-8"?>
<svg xmlns="http://www.w3.org/2000/svg" xmlns:xlink="http://www.w3.org/1999/xlink" width="30px" height="30px" viewBox="0 0 30 30" version="1.1">
<g id="surface1">
<path style=" stroke:none;fill-rule:nonzero;fill:rgb(0%,0%,0%);fill-opacity:1;" d="M 14.984375 17.171875 L 29.800781 8.003906 L 29.800781 5.886719 C 29.800781 5.363281 29.375 4.9375 28.851562 4.9375 L 1.117188 4.9375 C 0.589844 4.9375 0.164062 5.363281 0.164062 5.886719 L 0.164062 8.003906 Z M 14.984375 17.171875 "/>
<path style=" stroke:none;fill-rule:nonzero;fill:rgb(0%,0%,0%);fill-opacity:1;" d="M 15.242188 18.171875 C 15.238281 18.175781 15.234375 18.175781 15.230469 18.179688 C 15.207031 18.195312 15.175781 18.203125 15.148438 18.214844 C 15.136719 18.21875 15.125 18.226562 15.109375 18.230469 C 15.070312 18.242188 15.035156 18.246094 14.992188 18.246094 C 14.988281 18.246094 14.988281 18.246094 14.984375 18.246094 C 14.980469 18.246094 14.976562 18.246094 14.972656 18.246094 C 14.933594 18.246094 14.894531 18.238281 14.855469 18.230469 C 14.84375 18.226562 14.832031 18.21875 14.816406 18.214844 C 14.789062 18.203125 14.761719 18.195312 14.734375 18.179688 C 14.730469 18.175781 14.726562 18.175781 14.722656 18.171875 L 0.164062 9.164062 L 0.164062 24.078125 C 0.164062 24.601562 0.589844 25.027344 1.117188 25.027344 L 28.851562 25.027344 C 29.375 25.027344 29.800781 24.601562 29.800781 24.078125 L 29.800781 9.164062 Z M 15.242188 18.171875 "/>
</g>
</svg>
