<?xml version="1.0" encoding="UTF-8"?>
<svg xmlns="http://www.w3.org/2000/svg" xmlns:xlink="http://www.w3.org/1999/xlink" width="48px" height="48px" viewBox="0 0 48 48" version="1.1">
<g id="surface1">
<path style=" stroke:none;fill-rule:nonzero;fill:rgb(0%,0%,0%);fill-opacity:1;" d="M 23.972656 1.054688 L 1.054688 18.777344 L 6.789062 18.777344 L 6.789062 46.890625 L 17.726562 46.890625 L 17.726562 33.070312 C 17.726562 30.847656 19.484375 29.03125 21.632812 29.03125 L 26.3125 29.03125 C 28.464844 29.03125 30.222656 30.847656 30.222656 33.070312 L 30.222656 46.890625 L 41.15625 46.890625 L 41.15625 18.777344 L 46.890625 18.777344 Z M 23.972656 1.054688 "/>
<path style=" stroke:none;fill-rule:nonzero;fill:rgb(0%,0%,0%);fill-opacity:1;" d="M 41.15625 47.679688 L 30.222656 47.679688 C 29.785156 47.679688 29.429688 47.328125 29.429688 46.890625 L 29.429688 33.070312 C 29.429688 31.277344 28.03125 29.820312 26.3125 29.820312 L 21.632812 29.820312 C 19.914062 29.820312 18.515625 31.277344 18.515625 33.070312 L 18.515625 46.890625 C 18.515625 47.328125 18.160156 47.679688 17.722656 47.679688 L 6.789062 47.679688 C 6.351562 47.679688 6 47.328125 6 46.890625 L 6 19.566406 L 1.054688 19.566406 C 0.714844 19.566406 0.414062 19.351562 0.304688 19.03125 C 0.195312 18.710938 0.304688 18.359375 0.570312 18.152344 L 23.492188 0.429688 C 23.773438 0.210938 24.171875 0.210938 24.457031 0.429688 L 47.375 18.152344 C 47.640625 18.359375 47.75 18.710938 47.640625 19.03125 C 47.53125 19.351562 47.230469 19.566406 46.890625 19.566406 L 41.945312 19.566406 L 41.945312 46.890625 C 41.945312 47.328125 41.59375 47.679688 41.15625 47.679688 Z M 31.011719 46.101562 L 40.367188 46.101562 L 40.367188 18.777344 C 40.367188 18.339844 40.71875 17.984375 41.15625 17.984375 L 44.578125 17.984375 L 23.972656 2.054688 L 3.367188 17.984375 L 6.789062 17.984375 C 7.226562 17.984375 7.578125 18.339844 7.578125 18.777344 L 7.578125 46.101562 L 16.933594 46.101562 L 16.933594 33.070312 C 16.933594 30.40625 19.039062 28.238281 21.632812 28.238281 L 26.3125 28.238281 C 28.90625 28.238281 31.011719 30.40625 31.011719 33.070312 Z M 31.011719 46.101562 "/>
</g>
</svg>
