<?xml version="1.0" encoding="UTF-8"?>
<svg xmlns="http://www.w3.org/2000/svg" xmlns:xlink="http://www.w3.org/1999/xlink" width="30px" height="30px" viewBox="0 0 30 30" version="1.1">
<g id="surface1">
<path style=" stroke:none;fill-rule:nonzero;fill:rgb(0%,0%,0%);fill-opacity:1;" d="M 10.117188 3.28125 C 6.347656 3.28125 3.28125 6.347656 3.28125 10.117188 L 3.28125 19.882812 C 3.28125 23.652344 6.347656 26.71875 10.117188 26.71875 L 19.882812 26.71875 C 23.652344 26.71875 26.71875 23.652344 26.71875 19.882812 L 26.71875 10.117188 C 26.71875 6.347656 23.652344 3.28125 19.882812 3.28125 Z M 22.03125 7.03125 C 22.546875 7.03125 22.96875 7.453125 22.96875 7.96875 C 22.96875 8.484375 22.546875 8.90625 22.03125 8.90625 C 21.515625 8.90625 21.09375 8.484375 21.09375 7.96875 C 21.09375 7.453125 21.515625 7.03125 22.03125 7.03125 Z M 15 8.90625 C 18.359375 8.90625 21.09375 11.640625 21.09375 15 C 21.09375 18.359375 18.359375 21.09375 15 21.09375 C 11.640625 21.09375 8.90625 18.359375 8.90625 15 C 8.90625 11.640625 11.640625 8.90625 15 8.90625 Z M 15 10.78125 C 12.667969 10.78125 10.78125 12.667969 10.78125 15 C 10.78125 17.332031 12.667969 19.21875 15 19.21875 C 17.332031 19.21875 19.21875 17.332031 19.21875 15 C 19.21875 12.667969 17.332031 10.78125 15 10.78125 Z M 15 10.78125 "/>
</g>
</svg>
