<?xml version="1.0" encoding="UTF-8"?>
<svg xmlns="http://www.w3.org/2000/svg" xmlns:xlink="http://www.w3.org/1999/xlink" width="30px" height="30px" viewBox="0 0 30 30" version="1.1">
<g id="surface1">
<path style=" stroke:none;fill-rule:nonzero;fill:rgb(0%,0%,0%);fill-opacity:1;" d="M 12.9375 17.027344 L 16.519531 20.609375 C 16.839844 20.929688 17.332031 21.003906 17.734375 20.789062 L 22.023438 18.484375 C 22.34375 18.3125 22.726562 18.320312 23.035156 18.507812 L 29.296875 22.222656 C 29.746094 22.488281 29.925781 23.042969 29.714844 23.519531 C 29.179688 24.734375 28.207031 26.96875 27.820312 27.953125 C 27.738281 28.160156 27.617188 28.351562 27.449219 28.5 C 23.273438 32.117188 14.972656 27.707031 8.617188 21.351562 C 2.257812 14.996094 -2.148438 6.691406 1.46875 2.519531 C 1.613281 2.351562 1.804688 2.230469 2.011719 2.148438 C 3 1.761719 5.230469 0.785156 6.449219 0.25 C 6.925781 0.0429688 7.480469 0.222656 7.742188 0.667969 L 11.460938 6.929688 C 11.644531 7.242188 11.652344 7.625 11.480469 7.941406 L 9.175781 12.234375 C 8.964844 12.632812 9.035156 13.125 9.355469 13.445312 C 9.355469 13.445312 12.9375 17.027344 12.9375 17.027344 Z M 12.9375 17.027344 "/>
</g>
</svg>
