<?xml version="1.0" encoding="UTF-8"?>
<svg xmlns="http://www.w3.org/2000/svg" xmlns:xlink="http://www.w3.org/1999/xlink" width="48px" height="48px" viewBox="0 0 48 48" version="1.1">
<g id="surface1">
<path style=" stroke:none;fill-rule:nonzero;fill:rgb(0%,0%,0%);fill-opacity:1;" d="M 44.6875 12.21875 L 44.507812 12.21875 C 44.488281 10.582031 43.152344 9.257812 41.511719 9.257812 L 26.640625 9.257812 C 26.265625 9.257812 25.902344 9.105469 25.636719 8.839844 L 21.082031 4.285156 C 20.515625 3.71875 19.761719 3.40625 18.960938 3.40625 L 3.261719 3.40625 C 1.609375 3.40625 0.265625 4.753906 0.265625 6.40625 L 0.265625 42.160156 C 0.265625 43.472656 1.328125 44.539062 2.640625 44.539062 L 44.683594 44.539062 C 46.339844 44.539062 47.683594 43.191406 47.683594 41.539062 L 47.683594 15.21875 C 47.683594 13.566406 46.339844 12.21875 44.6875 12.21875 Z M 3.433594 15.21875 L 3.433594 42.160156 C 3.433594 42.601562 3.078125 42.957031 2.640625 42.957031 C 2.199219 42.957031 1.84375 42.601562 1.84375 42.160156 L 1.84375 6.40625 C 1.84375 5.625 2.480469 4.988281 3.261719 4.988281 L 18.960938 4.988281 C 19.339844 4.988281 19.695312 5.136719 19.964844 5.40625 L 24.519531 9.960938 C 25.078125 10.519531 25.851562 10.835938 26.640625 10.835938 L 41.511719 10.835938 C 42.28125 10.835938 42.90625 11.457031 42.925781 12.21875 L 6.433594 12.21875 C 4.78125 12.21875 3.433594 13.566406 3.433594 15.21875 Z M 46.101562 41.542969 C 46.101562 42.320312 45.464844 42.957031 44.6875 42.957031 L 4.878906 42.957031 C 4.96875 42.707031 5.015625 42.441406 5.015625 42.160156 L 5.015625 15.21875 C 5.015625 14.4375 5.652344 13.800781 6.433594 13.800781 L 44.683594 13.800781 C 45.464844 13.800781 46.101562 14.4375 46.101562 15.21875 Z M 46.101562 41.542969 "/>
<path style=" stroke:none;fill-rule:nonzero;fill:rgb(0%,0%,0%);fill-opacity:1;" d="M 40.460938 32.230469 L 30.335938 32.230469 C 29.902344 32.230469 29.546875 31.878906 29.546875 31.441406 C 29.546875 31.003906 29.902344 30.652344 30.335938 30.652344 L 40.460938 30.652344 C 40.898438 30.652344 41.253906 31.003906 41.253906 31.441406 C 41.253906 31.878906 40.898438 32.230469 40.460938 32.230469 Z M 40.460938 32.230469 "/>
<path style=" stroke:none;fill-rule:nonzero;fill:rgb(0%,0%,0%);fill-opacity:1;" d="M 40.460938 35.394531 L 30.335938 35.394531 C 29.902344 35.394531 29.546875 35.039062 29.546875 34.601562 C 29.546875 34.167969 29.902344 33.8125 30.335938 33.8125 L 40.460938 33.8125 C 40.898438 33.8125 41.253906 34.167969 41.253906 34.601562 C 41.253906 35.039062 40.898438 35.394531 40.460938 35.394531 Z M 40.460938 35.394531 "/>
<path style=" stroke:none;fill-rule:nonzero;fill:rgb(0%,0%,0%);fill-opacity:1;" d="M 40.460938 38.554688 L 30.335938 38.554688 C 29.902344 38.554688 29.546875 38.199219 29.546875 37.765625 C 29.546875 37.328125 29.902344 36.972656 30.335938 36.972656 L 40.460938 36.972656 C 40.898438 36.972656 41.253906 37.328125 41.253906 37.765625 C 41.253906 38.199219 40.898438 38.554688 40.460938 38.554688 Z M 40.460938 38.554688 "/>
</g>
</svg>
