<?xml version="1.0" encoding="UTF-8"?>
<svg xmlns="http://www.w3.org/2000/svg" xmlns:xlink="http://www.w3.org/1999/xlink" width="96px" height="85px" viewBox="0 0 97 85" version="1.1">
<g id="surface1">
<path style=" stroke:none;fill-rule:nonzero;fill:rgb(38.039216%,85.490197%,98.431373%);fill-opacity:1;" d="M 56.949219 42.5 C 56.949219 37.796875 53.167969 33.984375 48.5 33.984375 C 43.832031 33.984375 40.050781 37.796875 40.050781 42.5 C 40.050781 47.203125 43.832031 51.015625 48.5 51.015625 C 53.167969 51.015625 56.949219 47.203125 56.949219 42.5 Z M 56.949219 42.5 "/>
<path style="fill:none;stroke-width:1;stroke-linecap:butt;stroke-linejoin:miter;stroke:rgb(38.039216%,85.490197%,98.431373%);stroke-opacity:1;stroke-miterlimit:4;" d="M 10.999821 0 C 10.999821 -2.320009 6.074684 -4.199904 0 -4.199904 C -6.074684 -4.199904 -10.999821 -2.320009 -10.999821 0 C -10.999821 2.320009 -6.074684 4.199904 0 4.199904 C 6.074684 4.199904 10.999821 2.320009 10.999821 0 Z M 10.999821 0 " transform="matrix(4.121871,0,0,4.153741,48.5,42.5)"/>
<path style="fill:none;stroke-width:1;stroke-linecap:butt;stroke-linejoin:miter;stroke:rgb(38.039216%,85.490197%,98.431373%);stroke-opacity:1;stroke-miterlimit:4;" d="M 11.00032 -0.000259038 C 11.00021 -2.319137 6.075383 -4.199506 0.00000272929 -4.199908 C -6.075377 -4.20031 -10.999956 -2.31944 -11.00032 0.000259038 C -11.00021 2.319137 -6.075383 4.199506 -0.00000272929 4.199908 C 6.075377 4.20031 10.999956 2.31944 11.00032 -0.000259038 Z M 11.00032 -0.000259038 " transform="matrix(2.060936,3.597245,-3.569645,2.076871,48.5,42.5)"/>
<path style="fill:none;stroke-width:1;stroke-linecap:butt;stroke-linejoin:miter;stroke:rgb(38.039216%,85.490197%,98.431373%);stroke-opacity:1;stroke-miterlimit:4;" d="M 11.00032 0.000259038 C 10.999956 -2.31944 6.075377 -4.20031 -0.00000272929 -4.199908 C -6.075383 -4.199506 -11.00021 -2.319137 -11.00032 -0.000259038 C -10.999956 2.31944 -6.075377 4.20031 0.00000272929 4.199908 C 6.075383 4.199506 11.00021 2.319137 11.00032 0.000259038 Z M 11.00032 0.000259038 " transform="matrix(-2.060936,3.597245,-3.569645,-2.076871,48.5,42.5)"/>
</g>
</svg>
