<?xml version="1.0" encoding="UTF-8"?>
<svg xmlns="http://www.w3.org/2000/svg" xmlns:xlink="http://www.w3.org/1999/xlink" width="30px" height="30px" viewBox="0 0 30 30" version="1.1">
<g id="surface1">
<path style=" stroke:none;fill-rule:nonzero;fill:rgb(0%,0%,0%);fill-opacity:1;" d="M 15 1.199219 C 22.621094 1.199219 28.800781 7.378906 28.800781 15 C 28.800781 22.621094 22.621094 28.800781 15 28.800781 C 7.378906 28.800781 1.199219 22.621094 1.199219 15 C 1.199219 7.378906 7.378906 1.199219 15 1.199219 Z M 19.761719 20.625 C 20.015625 19.847656 21.203125 12.085938 21.351562 10.554688 C 21.394531 10.09375 21.25 9.785156 20.960938 9.648438 C 20.613281 9.480469 20.101562 9.5625 19.503906 9.777344 C 18.6875 10.074219 8.242188 14.507812 7.636719 14.765625 C 7.066406 15.007812 6.523438 15.273438 6.523438 15.65625 C 6.523438 15.925781 6.683594 16.078125 7.125 16.238281 C 7.585938 16.402344 8.742188 16.753906 9.425781 16.941406 C 10.085938 17.121094 10.832031 16.964844 11.253906 16.703125 C 11.699219 16.425781 16.835938 12.988281 17.207031 12.6875 C 17.574219 12.386719 17.867188 12.773438 17.566406 13.074219 C 17.265625 13.375 13.738281 16.796875 13.273438 17.273438 C 12.710938 17.847656 13.109375 18.445312 13.488281 18.683594 C 13.921875 18.957031 17.03125 21.042969 17.5 21.375 C 17.96875 21.710938 18.445312 21.863281 18.878906 21.863281 C 19.316406 21.863281 19.542969 21.289062 19.761719 20.625 Z M 19.761719 20.625 "/>
</g>
</svg>
